<svg width="600" height="600" viewBox="0 0 600 600" fill="none" xmlns="http://www.w3.org/2000/svg">
<g clip-path="url(#clip0_204_126)">
<path d="M317 55.78V172.87C303.93 135.55 203.52 120.2 188.83 190.21V494.21C189.39 513.19 208 543.28 240.74 545.08H83.96V55.78H317Z" fill="black"/>
<path d="M515.95 149.21H419.46V543.56H515.95V149.21Z" fill="black"/>
<path d="M516.04 54.9299H419.46V116.22H516.04V54.9299Z" fill="black"/>
<path d="M283.47 479.23V245.62C283.47 245.62 285.46 231.6 300.81 231.6C316.16 231.6 317 245.62 317 245.62V479.23C317 479.23 313.66 493.16 300.24 493.16C286.82 493.16 283.47 479.23 283.47 479.23Z" fill="black"/>
</g>
<defs>
<clipPath id="clip0_204_126">
<rect width="600" height="600" fill="white"/>
</clipPath>
</defs>
</svg>
