<?xml version="1.0" encoding="utf-8"?>
<!-- Generator: Adobe Illustrator 24.1.3, SVG Export Plug-In . SVG Version: 6.00 Build 0)  -->
<svg version="1.1" id="Layer_1" xmlns="http://www.w3.org/2000/svg" xmlns:xlink="http://www.w3.org/1999/xlink" x="0px" y="0px"
	 viewBox="0 0 600 600" style="enable-background:new 0 0 600 600;" xml:space="preserve">
<style type="text/css">
	.st0{fill:#F15F22;}
	.st1{fill:#457EC0;}
	.st2{fill:#FFFFFF;}
	.st3{fill:#56C5C9;}
	.st4{fill:#8D51A0;}
</style>
<path class="st0" d="M317,55.78v117.09c-13.07-37.32-113.48-52.67-128.17,17.34v304c0.56,18.98,19.17,49.07,51.91,50.87H83.96V55.78
	H317z"/>
<rect x="419.46" y="149.21" class="st0" width="96.49" height="394.35"/>
<rect x="419.46" y="54.93" class="st0" width="96.58" height="61.29"/>
<path class="st0" d="M283.47,479.23V245.62c0,0,1.99-14.02,17.34-14.02S317,245.62,317,245.62v233.61c0,0-3.34,13.93-16.76,13.93
	S283.47,479.23,283.47,479.23z"/>
<rect x="777.74" y="-191.33" class="st0" width="82.43" height="72"/>
<rect x="658.78" y="-191.33" class="st1" width="82.43" height="72"/>
<rect x="889.91" y="-191.33" width="82.43" height="72"/>
<rect x="1002.08" y="-191.33" class="st2" width="82.43" height="72"/>
<rect x="1114.26" y="-191.33" class="st3" width="82.43" height="72"/>
<rect x="1226.43" y="-191.33" class="st4" width="82.43" height="72"/>
</svg>
