<svg width="165" height="32" viewBox="0 0 165 32" xmlns="http://www.w3.org/2000/svg">
    <g fill="none" fill-rule="evenodd">
        <path fill="#FEFEFE" d="M0 32h53.647V0H0z"/>
        <path fill="#BE1F24" d="M0 32h53.647V0H0z"/>
        <path fill="#FEFEFE" d="M4.706 3.765h20.319v6.499H12.264v3.182h11.585v6.05H12.264v3.182h13.148v6.498H4.706zM35.217 10.264h-6.982v-6.5h21.647v6.5H42.89v18.912h-7.673z"/>
        <g>
            <path fill="#BE1F24" d="M54.588 32h33.883V0H54.588zM89.412 32h32V0h-32zM122.353 32h42.353V0h-42.353z"/>
            <path fill="#FEFEFE" d="M56.47 3.765h10.461l12.681 18.462h.061V3.765h6.751v25.411h-10.46L63.281 10.714h-.06v18.462H56.47zM96.941 17.967c0 .997.05 1.855.148 2.57.1.717.288 1.292.566 1.727a2.44 2.44 0 0 0 1.16.958c.495.206 1.13.307 1.903.307h8.447c.773 0 1.408-.101 1.903-.307a2.45 2.45 0 0 0 1.16-.958c.277-.435.466-1.01.565-1.727.1-.715.148-1.573.148-2.57v-2.992c0-.87-.054-1.642-.163-2.321-.11-.676-.312-1.26-.61-1.745a2.89 2.89 0 0 0-1.249-1.113c-.535-.255-1.239-.384-2.112-.384h-7.731c-.874 0-1.578.13-2.113.384a2.888 2.888 0 0 0-1.249 1.113c-.297.486-.5 1.069-.61 1.745-.109.679-.163 1.452-.163 2.32v2.993zm-6.588-5.205c0-1.808.217-3.297.651-4.465.434-1.168 1.07-2.088 1.909-2.764.837-.675 1.853-1.138 3.045-1.39 1.191-.252 2.545-.378 4.06-.378h10.787c1.515 0 2.868.126 4.06.377 1.191.253 2.207.716 3.045 1.39.838.677 1.474 1.597 1.909 2.765.434 1.168.652 2.657.652 4.465v7.417c0 1.832-.218 3.326-.652 4.482-.435 1.156-1.07 2.072-1.91 2.747-.837.676-1.853 1.14-3.044 1.391-1.192.251-2.545.377-4.06.377h-10.787c-1.515 0-2.869-.126-4.06-.377-1.192-.251-2.208-.715-3.045-1.39-.838-.676-1.475-1.592-1.909-2.748-.434-1.156-.651-2.65-.651-4.482v-7.417zM123.294 3.765h6.621l4.698 18.673h.062l5.614-18.673h6.285l5.614 18.673h.06l4.7-18.673h6.62l-7.17 25.411h-7.78L143.46 12.4h-.06l-5.157 16.776h-7.78z"/>
        </g>
    </g>
</svg>
